{
  "accessors": [
    {
      "bufferView": 2,
      "componentType": 5126,
      "count": 1710,
      "max": [
        0.664260983467102,
        0.4161520004272461,
        0.12479200214147568
      ],
      "min": [
        -0.7163860201835632,
        -0.19385099411010742,
        -0.1355230063199997
      ],
      "type": "VEC3"
    },
    {
      "bufferView": 2,
      "byteOffset": 20520,
      "componentType": 5126,
      "count": 1710,
      "max": [
        0.9922075867652893,
        0.9936060309410095,
        0.9999865293502808
      ],
      "min": [
        -0.9886412620544434,
        -0.9995269179344177,
        -0.9993770122528076
      ],
      "type": "VEC3"
    },
    {
      "bufferView": 1,
      "componentType": 5126,
      "count": 1710,
      "max": [
        0.930001974105835,
        0.9662529826164246
      ],
      "min": [
        0.10361400246620178,
        0.03527199849486351
      ],
      "type": "VEC2"
    },
    {
      "bufferView": 0,
      "componentType": 5125,
      "count": 9468,
      "type": "SCALAR"
    }
  ],
  "asset": {
    "extras": {
      "author": "firehawksoftware (https://sketchfab.com/firehawk77028)",
      "license": "CC-BY-NC-4.0 (http://creativecommons.org/licenses/by-nc/4.0/)",
      "source": "https://sketchfab.com/3d-models/banana-ada7c35a1a5742f1b4c528eb3daee35b",
      "title": "Banana"
    },
    "generator": "Sketchfab-12.67.0",
    "version": "2.0"
  },
  "bufferViews": [
    {
      "buffer": 0,
      "byteLength": 37872,
      "name": "floatBufferViews",
      "target": 34963
    },
    {
      "buffer": 0,
      "byteLength": 13680,
      "byteOffset": 37872,
      "byteStride": 8,
      "name": "floatBufferViews",
      "target": 34962
    },
    {
      "buffer": 0,
      "byteLength": 41040,
      "byteOffset": 51552,
      "byteStride": 12,
      "name": "floatBufferViews",
      "target": 34962
    }
  ],
  "buffers": [
    {
      "byteLength": 92592,
      "uri": "scene.bin"
    }
  ],
  "images": [
    {
      "uri": "textures/Diffuse_baseColor.png"
    }
  ],
  "materials": [
    {
      "doubleSided": true,
      "name": "Diffuse",
      "pbrMetallicRoughness": {
        "baseColorTexture": {
          "index": 0
        },
        "metallicFactor": 0.0,
        "roughnessFactor": 0.8063508326896291
      }
    }
  ],
  "meshes": [
    {
      "name": "Object_0",
      "primitives": [
        {
          "attributes": {
            "NORMAL": 1,
            "POSITION": 0,
            "TEXCOORD_0": 2
          },
          "indices": 3,
          "material": 0,
          "mode": 4
        }
      ]
    }
  ],
  "nodes": [
    {
      "children": [
        1
      ],
      "matrix": [
        1.0,
        2.8327693431939985e-16,
        2.8327693431939995e-16,
        0.0,
        -2.832769343193999e-16,
        1.0,
        6.661338147750939e-16,
        0.0,
        -2.832769343193999e-16,
        -6.661338147750939e-16,
        1.0,
        0.0,
        3.122502256758253e-17,
        -0.11651650816202161,
        -0.10578545182943347,
        1.0
      ],
      "name": "Sketchfab_model"
    },
    {
      "children": [
        2
      ],
      "name": "export_banana.obj.cleaner.materialmerger.gles"
    },
    {
      "mesh": 0,
      "name": "Object_2"
    }
  ],
  "samplers": [
    {
      "magFilter": 9729,
      "minFilter": 9987,
      "wrapS": 10497,
      "wrapT": 10497
    }
  ],
  "scene": 0,
  "scenes": [
    {
      "name": "Sketchfab_Scene",
      "nodes": [
        0
      ]
    }
  ],
  "textures": [
    {
      "sampler": 0,
      "source": 0
    }
  ]
}
